0
SECTION
2
ENTITIES
0
LINE
8
WALLS
10
0.0
20
0.0
30
0.0
11
12.0
21
0.0
31
0.0
0
LINE
8
WALLS
10
12.0
20
0.0
30
0.0
11
12.0
21
10.0
31
0.0
0
LINE
8
WALLS
10
12.0
20
10.0
30
0.0
11
0.0
21
10.0
31
0.0
0
LINE
8
WALLS
10
0.0
20
10.0
30
0.0
11
0.0
21
0.0
31
0.0
0
LINE
8
WALLS
10
0.2
20
5.2
30
0.0
11
4.2
21
5.2
31
0.0
0
LINE
8
WALLS
10
4.2
20
5.2
30
0.0
11
4.2
21
9.600000000000001
31
0.0
0
LINE
8
WALLS
10
4.2
20
9.600000000000001
30
0.0
11
0.2
21
9.600000000000001
31
0.0
0
LINE
8
WALLS
10
0.2
20
9.600000000000001
30
0.0
11
0.2
21
5.2
31
0.0
0
TEXT
8
LABELS
10
0.5
20
9.100000000000001
30
0.0
40
0.3
1
Buero 101
0
TEXT
8
LABELS
10
0.5
20
8.700000000000001
30
0.0
40
0.25
1
20,0 qm
0
LINE
8
WALLS
10
4.6
20
5.2
30
0.0
11
7.8999999999999995
21
5.2
31
0.0
0
LINE
8
WALLS
10
7.8999999999999995
20
5.2
30
0.0
11
7.8999999999999995
21
9.600000000000001
31
0.0
0
LINE
8
WALLS
10
7.8999999999999995
20
9.600000000000001
30
0.0
11
4.6
21
9.600000000000001
31
0.0
0
LINE
8
WALLS
10
4.6
20
9.600000000000001
30
0.0
11
4.6
21
5.2
31
0.0
0
TEXT
8
LABELS
10
4.8999999999999995
20
9.100000000000001
30
0.0
40
0.3
1
Buero 102
0
TEXT
8
LABELS
10
4.8999999999999995
20
8.700000000000001
30
0.0
40
0.25
1
17,5 qm
0
LINE
8
WALLS
10
8.2
20
0.2
30
0.0
11
10.2
21
0.2
31
0.0
0
LINE
8
WALLS
10
10.2
20
0.2
30
0.0
11
10.2
21
9.6
31
0.0
0
LINE
8
WALLS
10
10.2
20
9.6
30
0.0
11
8.2
21
9.6
31
0.0
0
LINE
8
WALLS
10
8.2
20
9.6
30
0.0
11
8.2
21
0.2
31
0.0
0
TEXT
8
LABELS
10
8.5
20
9.1
30
0.0
40
0.3
1
Flur
0
TEXT
8
LABELS
10
8.5
20
8.7
30
0.0
40
0.25
1
20,0 qm
0
LINE
8
WALLS
10
0.2
20
0.2
30
0.0
11
6.2
21
0.2
31
0.0
0
LINE
8
WALLS
10
6.2
20
0.2
30
0.0
11
6.2
21
4.8
31
0.0
0
LINE
8
WALLS
10
6.2
20
4.8
30
0.0
11
0.2
21
4.8
31
0.0
0
LINE
8
WALLS
10
0.2
20
4.8
30
0.0
11
0.2
21
0.2
31
0.0
0
TEXT
8
LABELS
10
0.5
20
4.3
30
0.0
40
0.3
1
Besprechungsraum
0
TEXT
8
LABELS
10
0.5
20
3.9
30
0.0
40
0.25
1
30,0 qm
0
LINE
8
WALLS
10
6.4
20
0.2
30
0.0
11
8.0
21
0.2
31
0.0
0
LINE
8
WALLS
10
8.0
20
0.2
30
0.0
11
8.0
21
2.8000000000000003
31
0.0
0
LINE
8
WALLS
10
8.0
20
2.8000000000000003
30
0.0
11
6.4
21
2.8000000000000003
31
0.0
0
LINE
8
WALLS
10
6.4
20
2.8000000000000003
30
0.0
11
6.4
21
0.2
31
0.0
0
TEXT
8
LABELS
10
6.7
20
2.3000000000000003
30
0.0
40
0.3
1
Teekueche
0
TEXT
8
LABELS
10
6.7
20
1.9000000000000004
30
0.0
40
0.25
1
9,0 qm
0
ENDSEC
0
EOF
